<?xml version="1.0" encoding="utf-8"?>
<!-- Generator: Adobe Illustrator 15.0.2, SVG Export Plug-In . SVG Version: 6.00 Build 0)  -->
<!DOCTYPE svg PUBLIC "-//W3C//DTD SVG 1.1//EN" "http://www.w3.org/Graphics/SVG/1.1/DTD/svg11.dtd">
<svg version="1.1" id="Layer_1" xmlns="http://www.w3.org/2000/svg" xmlns:xlink="http://www.w3.org/1999/xlink" x="0px" y="0px"
	 width="50.555px" height="57.48px" viewBox="0 0 50.555 57.48" enable-background="new 0 0 50.555 57.48" xml:space="preserve">
<g>
	<path fill="#FFA613" d="M19.582,57.48V40.605c-6.445-0.703-11.32-2.76-14.625-6.17S0,26.438,0,20.672
		c0-3.633,0.645-7.131,1.934-10.494C3.222,6.814,5.273,3.422,8.086,0l7.77,5.063c-2.109,2.859-3.598,5.502-4.465,7.928
		s-1.301,5.057-1.301,7.893c0,6.516,3.164,10.383,9.492,11.602V14.344c0-4.336,1.254-7.764,3.762-10.283s5.941-3.779,10.301-3.779
		c5.273,0,9.41,1.711,12.41,5.133s4.5,8.074,4.5,13.957c0,4.008-0.873,7.541-2.619,10.6s-4.207,5.496-7.383,7.313
		s-6.85,2.924-11.021,3.322V57.48H19.582z M40.254,19.441c0-3.656-0.551-6.463-1.652-8.42s-2.707-2.936-4.816-2.936
		c-1.336,0-2.379,0.463-3.129,1.389S29.531,12,29.531,14.273v18.211c3.211-0.281,5.801-1.617,7.77-4.008
		S40.254,23.074,40.254,19.441z"/>
</g>
</svg>
