<?xml version="1.0" encoding="UTF-8"?><svg xmlns="http://www.w3.org/2000/svg" xmlns:xlink="http://www.w3.org/1999/xlink" fill-opacity="1" color-rendering="auto" color-interpolation="auto" text-rendering="auto" stroke="black" stroke-linecap="square" width="910" stroke-miterlimit="10" shape-rendering="auto" stroke-opacity="1" fill="black" stroke-dasharray="none" font-weight="normal" stroke-width="1" height="459" font-family="'Dialog'" font-style="normal" stroke-linejoin="miter" font-size="12px" stroke-dashoffset="0" image-rendering="auto">
  <!--Generated by ySVG 2.5-->
  <defs id="genericDefs"/>
  <g>
    <defs id="defs1">
      <clipPath clipPathUnits="userSpaceOnUse" id="clipPath1">
        <path d="M0 0 L910 0 L910 459 L0 459 L0 0 Z"/>
      </clipPath>
      <clipPath clipPathUnits="userSpaceOnUse" id="clipPath2">
        <path d="M305 113 L1215 113 L1215 572 L305 572 L305 113 Z"/>
      </clipPath>
    </defs>
    <g fill="white" text-rendering="geometricPrecision" shape-rendering="geometricPrecision" transform="translate(-305,-113)" stroke="white">
      <rect x="305" width="910" height="459" y="113" clip-path="url(#clipPath2)" stroke="none"/>
    </g>
    <g fill="white" text-rendering="geometricPrecision" shape-rendering="geometricPrecision" transform="matrix(1,0,0,1,-305,-113)" stroke="white">
      <path d="M330.7048 151 Q330.7048 141 340.7048 141 L403.2952 141 Q413.2952 141 413.2952 151 L413.2952 171 Q413.2952 181 403.2952 181 L340.7048 181 Q330.7048 181 330.7048 171 Z" stroke="none" clip-path="url(#clipPath2)"/>
    </g>
    <g text-rendering="geometricPrecision" stroke-miterlimit="1.45" shape-rendering="geometricPrecision" transform="matrix(1,0,0,1,-305,-113)" stroke-linecap="butt">
      <path fill="none" d="M330.7048 151 Q330.7048 141 340.7048 141 L403.2952 141 Q413.2952 141 413.2952 151 L413.2952 171 Q413.2952 181 403.2952 181 L340.7048 181 Q330.7048 181 330.7048 171 Z" clip-path="url(#clipPath2)"/>
      <text x="337.7048" xml:space="preserve" y="165.6534" clip-path="url(#clipPath2)" font-family="sans-serif" stroke="none">MainActivity</text>
    </g>
    <g fill="white" text-rendering="geometricPrecision" shape-rendering="geometricPrecision" transform="matrix(1,0,0,1,-305,-113)" stroke="white">
      <path d="M500.3804 151 Q500.3804 141 510.3804 141 L542.0996 141 Q552.0996 141 552.0996 151 L552.0996 171 Q552.0996 181 542.0996 181 L510.3804 181 Q500.3804 181 500.3804 171 Z" stroke="none" clip-path="url(#clipPath2)"/>
    </g>
    <g text-rendering="geometricPrecision" stroke-miterlimit="1.45" shape-rendering="geometricPrecision" transform="matrix(1,0,0,1,-305,-113)" stroke-linecap="butt">
      <path fill="none" d="M500.3804 151 Q500.3804 141 510.3804 141 L542.0996 141 Q552.0996 141 552.0996 151 L552.0996 171 Q552.0996 181 542.0996 181 L510.3804 181 Q500.3804 181 500.3804 171 Z" clip-path="url(#clipPath2)"/>
      <text x="507.3804" xml:space="preserve" y="165.6534" clip-path="url(#clipPath2)" font-family="sans-serif" stroke="none">Queue</text>
    </g>
    <g fill="white" text-rendering="geometricPrecision" shape-rendering="geometricPrecision" transform="matrix(1,0,0,1,-305,-113)" stroke="white">
      <path d="M616.7849 151 Q616.7849 141 626.7849 141 L651.2961 141 Q661.2961 141 661.2961 151 L661.2961 171 Q661.2961 181 651.2961 181 L626.7849 181 Q616.7849 181 616.7849 171 Z" stroke="none" clip-path="url(#clipPath2)"/>
    </g>
    <g text-rendering="geometricPrecision" stroke-miterlimit="1.45" shape-rendering="geometricPrecision" transform="matrix(1,0,0,1,-305,-113)" stroke-linecap="butt">
      <path fill="none" d="M616.7849 151 Q616.7849 141 626.7849 141 L651.2961 141 Q661.2961 141 661.2961 151 L661.2961 171 Q661.2961 181 651.2961 181 L626.7849 181 Q616.7849 181 616.7849 171 Z" clip-path="url(#clipPath2)"/>
      <text x="623.7849" xml:space="preserve" y="165.6534" clip-path="url(#clipPath2)" font-family="sans-serif" stroke="none">Track</text>
    </g>
    <g fill="white" text-rendering="geometricPrecision" shape-rendering="geometricPrecision" transform="matrix(1,0,0,1,-305,-113)" stroke="white">
      <path d="M625.9873 288.24 Q615.9873 288.24 615.9873 298.24 L615.9873 318.24 Q615.9873 326.24 622.3873 327.84 L622.3873 327.84 Q623.9873 334.24 631.9873 334.24 L658.0936 334.24 Q668.0936 334.24 668.0936 324.24 L668.0936 304.24 Q668.0936 296.24 661.6937 294.64 L661.6937 294.64 Q660.0936 288.24 652.0936 288.24 Z" stroke="none" clip-path="url(#clipPath2)"/>
    </g>
    <g text-rendering="geometricPrecision" stroke-miterlimit="1.45" shape-rendering="geometricPrecision" transform="matrix(1,0,0,1,-305,-113)" stroke-linecap="butt">
      <path fill="none" d="M661.6937 294.64 Q662.0936 296.24 662.0936 298.24 L662.0936 318.24 Q662.0936 328.24 652.0936 328.24 L625.9873 328.24 Q623.9873 328.24 622.3873 327.84 L622.3873 327.84 Q623.9873 334.24 631.9873 334.24 L658.0936 334.24 Q668.0936 334.24 668.0936 324.24 L668.0936 304.24 Q668.0936 296.24 661.6937 294.64 Z" clip-path="url(#clipPath2)"/>
    </g>
    <g text-rendering="geometricPrecision" stroke-miterlimit="1.45" shape-rendering="geometricPrecision" transform="matrix(1,0,0,1,-305,-113)" stroke-linecap="butt">
      <path fill="none" d="M625.9873 288.24 Q615.9873 288.24 615.9873 298.24 L615.9873 318.24 Q615.9873 328.24 625.9873 328.24 L652.0936 328.24 Q662.0936 328.24 662.0936 318.24 L662.0936 298.24 Q662.0936 288.24 652.0936 288.24 Z" clip-path="url(#clipPath2)"/>
      <text x="622.9873" xml:space="preserve" y="312.8934" clip-path="url(#clipPath2)" font-family="sans-serif" stroke="none">filters</text>
    </g>
    <g fill="white" text-rendering="geometricPrecision" shape-rendering="geometricPrecision" transform="matrix(1,0,0,1,-305,-113)" stroke="white">
      <rect x="627.0449" width="23.9912" height="17.6125" y="279.4337" clip-path="url(#clipPath2)" stroke="none"/>
      <rect x="627.0449" y="279.4337" clip-path="url(#clipPath2)" fill="none" width="23.9912" height="17.6125" stroke="black" stroke-miterlimit="1.6"/>
    </g>
    <g font-size="10px" stroke-linecap="butt" transform="matrix(1,0,0,1,-305,-113)" text-rendering="geometricPrecision" font-family="sans-serif" shape-rendering="geometricPrecision" stroke-miterlimit="1.45">
      <text x="631.0449" xml:space="preserve" y="292.1179" clip-path="url(#clipPath2)" stroke="none">N:5</text>
    </g>
    <g fill="white" text-rendering="geometricPrecision" shape-rendering="geometricPrecision" transform="matrix(1,0,0,1,-305,-113)" stroke="white">
      <path d="M798.2964 298.24 Q798.2964 288.24 808.2964 288.24 L820.7303 288.24 Q830.7303 288.24 830.7303 298.24 L830.7303 318.24 Q830.7303 328.24 820.7303 328.24 L808.2964 328.24 Q798.2964 328.24 798.2964 318.24 Z" stroke="none" clip-path="url(#clipPath2)"/>
    </g>
    <g text-rendering="geometricPrecision" stroke-miterlimit="1.45" shape-rendering="geometricPrecision" transform="matrix(1,0,0,1,-305,-113)" stroke-linecap="butt">
      <path fill="none" d="M798.2964 298.24 Q798.2964 288.24 808.2964 288.24 L820.7303 288.24 Q830.7303 288.24 830.7303 298.24 L830.7303 318.24 Q830.7303 328.24 820.7303 328.24 L808.2964 328.24 Q798.2964 328.24 798.2964 318.24 Z" clip-path="url(#clipPath2)"/>
      <text x="805.2964" xml:space="preserve" y="312.8934" clip-path="url(#clipPath2)" font-family="sans-serif" stroke="none">Svc</text>
    </g>
    <g fill="white" text-rendering="geometricPrecision" shape-rendering="geometricPrecision" transform="matrix(1,0,0,1,-305,-113)" stroke="white">
      <path d="M698.9466 298.24 Q698.9466 288.24 708.9466 288.24 L745.0435 288.24 Q755.0435 288.24 755.0435 298.24 L755.0435 318.24 Q755.0435 328.24 745.0435 328.24 L708.9466 328.24 Q698.9466 328.24 698.9466 318.24 Z" stroke="none" clip-path="url(#clipPath2)"/>
    </g>
    <g text-rendering="geometricPrecision" stroke-miterlimit="1.45" shape-rendering="geometricPrecision" transform="matrix(1,0,0,1,-305,-113)" stroke-linecap="butt">
      <path fill="none" d="M698.9466 298.24 Q698.9466 288.24 708.9466 288.24 L745.0435 288.24 Q755.0435 288.24 755.0435 298.24 L755.0435 318.24 Q755.0435 328.24 745.0435 328.24 L708.9466 328.24 Q698.9466 328.24 698.9466 318.24 Z" clip-path="url(#clipPath2)"/>
      <text x="705.9466" xml:space="preserve" y="312.8934" clip-path="url(#clipPath2)" font-family="sans-serif" stroke="none">SysJobs</text>
    </g>
    <g fill="white" text-rendering="geometricPrecision" shape-rendering="geometricPrecision" transform="matrix(1,0,0,1,-305,-113)" stroke="white">
      <path d="M950.4307 151 Q950.4307 141 960.4307 141 L1006.2902 141 Q1016.2902 141 1016.2902 151 L1016.2902 171 Q1016.2902 181 1006.2902 181 L960.4307 181 Q950.4307 181 950.4307 171 Z" stroke="none" clip-path="url(#clipPath2)"/>
    </g>
    <g text-rendering="geometricPrecision" stroke-miterlimit="1.45" shape-rendering="geometricPrecision" transform="matrix(1,0,0,1,-305,-113)" stroke-linecap="butt">
      <path fill="none" d="M950.4307 151 Q950.4307 141 960.4307 141 L1006.2902 141 Q1016.2902 141 1016.2902 151 L1016.2902 171 Q1016.2902 181 1006.2902 181 L960.4307 181 Q950.4307 181 950.4307 171 Z" clip-path="url(#clipPath2)"/>
      <text x="957.4307" xml:space="preserve" y="165.6534" clip-path="url(#clipPath2)" font-family="sans-serif" stroke="none">Track.MP</text>
    </g>
    <g fill="white" text-rendering="geometricPrecision" shape-rendering="geometricPrecision" transform="matrix(1,0,0,1,-305,-113)" stroke="white">
      <path d="M1112.5284 452.76 Q1112.5284 442.76 1122.5284 442.76 L1189.4963 442.76 Q1199.4963 442.76 1199.4963 452.76 L1199.4963 472.76 Q1199.4963 482.76 1189.4963 482.76 L1122.5284 482.76 Q1112.5284 482.76 1112.5284 472.76 Z" stroke="none" clip-path="url(#clipPath2)"/>
    </g>
    <g text-rendering="geometricPrecision" stroke-miterlimit="1.45" shape-rendering="geometricPrecision" transform="matrix(1,0,0,1,-305,-113)" stroke-linecap="butt">
      <path fill="none" d="M1112.5284 452.76 Q1112.5284 442.76 1122.5284 442.76 L1189.4963 442.76 Q1199.4963 442.76 1199.4963 452.76 L1199.4963 472.76 Q1199.4963 482.76 1189.4963 482.76 L1122.5284 482.76 Q1112.5284 482.76 1112.5284 472.76 Z" clip-path="url(#clipPath2)"/>
      <text x="1133.9146" xml:space="preserve" y="459.2459" clip-path="url(#clipPath2)" font-family="sans-serif" stroke="none">android</text>
      <text x="1119.5284" xml:space="preserve" y="475.581" clip-path="url(#clipPath2)" font-family="sans-serif" stroke="none">.MediaPlayer</text>
    </g>
    <g fill="white" text-rendering="geometricPrecision" shape-rendering="geometricPrecision" transform="matrix(1,0,0,1,-305,-113)" stroke="white">
      <ellipse rx="22.1777" ry="20" clip-path="url(#clipPath2)" cx="858.9058" cy="161" stroke="none"/>
    </g>
    <g text-rendering="geometricPrecision" stroke-miterlimit="1.45" shape-rendering="geometricPrecision" transform="matrix(1,0,0,1,-305,-113)" stroke-linecap="butt">
      <ellipse rx="22.1777" fill="none" ry="20" clip-path="url(#clipPath2)" cx="858.9058" cy="161"/>
      <text x="843.7281" xml:space="preserve" y="165.6534" clip-path="url(#clipPath2)" font-family="sans-serif" stroke="none">timer</text>
    </g>
    <g fill="white" text-rendering="geometricPrecision" shape-rendering="geometricPrecision" transform="matrix(1,0,0,1,-305,-113)" stroke="white">
      <path d="M950.4307 197.88 Q950.4307 187.88 960.4307 187.88 L1006.2902 187.88 Q1016.2902 187.88 1016.2902 197.88 L1016.2902 217.88 Q1016.2902 227.88 1006.2902 227.88 L960.4307 227.88 Q950.4307 227.88 950.4307 217.88 Z" stroke="none" clip-path="url(#clipPath2)"/>
    </g>
    <g text-rendering="geometricPrecision" stroke-miterlimit="1.45" shape-rendering="geometricPrecision" transform="matrix(1,0,0,1,-305,-113)" stroke-linecap="butt">
      <path fill="none" d="M950.4307 197.88 Q950.4307 187.88 960.4307 187.88 L1006.2902 187.88 Q1016.2902 187.88 1016.2902 197.88 L1016.2902 217.88 Q1016.2902 227.88 1006.2902 227.88 L960.4307 227.88 Q950.4307 227.88 950.4307 217.88 Z" clip-path="url(#clipPath2)"/>
      <text x="957.4307" xml:space="preserve" y="212.5334" clip-path="url(#clipPath2)" font-family="sans-serif" stroke="none">Track.MP</text>
    </g>
    <g fill="white" text-rendering="geometricPrecision" shape-rendering="geometricPrecision" transform="matrix(1,0,0,1,-305,-113)" stroke="white">
      <path d="M399.3924 301.88 Q399.3924 291.88 409.3924 291.88 L448.9074 291.88 Q458.9074 291.88 458.9074 301.88 L458.9074 321.88 Q458.9074 331.88 448.9074 331.88 L409.3924 331.88 Q399.3924 331.88 399.3924 321.88 Z" stroke="none" clip-path="url(#clipPath2)"/>
    </g>
    <g text-rendering="geometricPrecision" stroke-miterlimit="1.45" shape-rendering="geometricPrecision" transform="matrix(1,0,0,1,-305,-113)" stroke-linecap="butt">
      <path fill="none" d="M399.3924 301.88 Q399.3924 291.88 409.3924 291.88 L448.9074 291.88 Q458.9074 291.88 458.9074 301.88 L458.9074 321.88 Q458.9074 331.88 448.9074 331.88 L409.3924 331.88 Q399.3924 331.88 399.3924 321.88 Z" clip-path="url(#clipPath2)"/>
      <text x="406.3924" xml:space="preserve" y="316.5334" clip-path="url(#clipPath2)" font-family="sans-serif" stroke="none">TrackCtl</text>
    </g>
    <g fill="white" text-rendering="geometricPrecision" shape-rendering="geometricPrecision" transform="matrix(1,0,0,1,-305,-113)" stroke="white">
      <path d="M737.2703 389.16 Q737.2703 379.16 747.2703 379.16 L810.0764 379.16 Q820.0764 379.16 820.0764 389.16 L820.0764 409.16 Q820.0764 419.16 810.0764 419.16 L747.2703 419.16 Q737.2703 419.16 737.2703 409.16 Z" stroke="none" clip-path="url(#clipPath2)"/>
    </g>
    <g text-rendering="geometricPrecision" stroke-miterlimit="1.45" shape-rendering="geometricPrecision" transform="matrix(1,0,0,1,-305,-113)" stroke-linecap="butt">
      <path fill="none" d="M737.2703 389.16 Q737.2703 379.16 747.2703 379.16 L810.0764 379.16 Q820.0764 379.16 820.0764 389.16 L820.0764 409.16 Q820.0764 419.16 810.0764 419.16 L747.2703 419.16 Q737.2703 419.16 737.2703 409.16 Z" clip-path="url(#clipPath2)"/>
      <text x="756.5755" xml:space="preserve" y="395.6459" clip-path="url(#clipPath2)" font-family="sans-serif" stroke="none">android</text>
      <text x="744.2703" xml:space="preserve" y="411.981" clip-path="url(#clipPath2)" font-family="sans-serif" stroke="none">.Notification</text>
    </g>
    <g fill="white" text-rendering="geometricPrecision" shape-rendering="geometricPrecision" transform="matrix(1,0,0,1,-305,-113)" stroke="white">
      <path d="M938.8721 449.76 Q938.8721 442.76 945.8721 442.76 L945.8721 442.76 Q952.8721 442.76 952.8721 449.76 L952.8721 475.76 Q952.8721 482.76 945.8721 482.76 L945.8721 482.76 Q938.8721 482.76 938.8721 475.76 Z" stroke="none" clip-path="url(#clipPath2)"/>
    </g>
    <g text-rendering="geometricPrecision" stroke-miterlimit="1.45" shape-rendering="geometricPrecision" transform="matrix(1,0,0,1,-305,-113)" stroke-linecap="butt">
      <path fill="none" d="M938.8721 449.76 Q938.8721 442.76 945.8721 442.76 L945.8721 442.76 Q952.8721 442.76 952.8721 449.76 L952.8721 475.76 Q952.8721 482.76 945.8721 482.76 L945.8721 482.76 Q938.8721 482.76 938.8721 475.76 Z" clip-path="url(#clipPath2)"/>
    </g>
    <g fill="white" text-rendering="geometricPrecision" shape-rendering="geometricPrecision" transform="matrix(1,0,0,1,-305,-113)" stroke="white">
      <path d="M898.1664 389.16 Q898.1664 379.16 908.1664 379.16 L983.5777 379.16 Q993.5777 379.16 993.5777 389.16 L993.5777 409.16 Q993.5777 419.16 983.5777 419.16 L908.1664 419.16 Q898.1664 419.16 898.1664 409.16 Z" stroke="none" clip-path="url(#clipPath2)"/>
    </g>
    <g text-rendering="geometricPrecision" stroke-miterlimit="1.45" shape-rendering="geometricPrecision" transform="matrix(1,0,0,1,-305,-113)" stroke-linecap="butt">
      <path fill="none" d="M898.1664 389.16 Q898.1664 379.16 908.1664 379.16 L983.5777 379.16 Q993.5777 379.16 993.5777 389.16 L993.5777 409.16 Q993.5777 419.16 983.5777 419.16 L908.1664 419.16 Q898.1664 419.16 898.1664 409.16 Z" clip-path="url(#clipPath2)"/>
      <text x="923.7742" xml:space="preserve" y="395.6459" clip-path="url(#clipPath2)" font-family="sans-serif" stroke="none">android</text>
      <text x="905.1664" xml:space="preserve" y="411.981" clip-path="url(#clipPath2)" font-family="sans-serif" stroke="none">.PlaybackState</text>
    </g>
    <g fill="white" text-rendering="geometricPrecision" shape-rendering="geometricPrecision" transform="matrix(1,0,0,1,-305,-113)" stroke="white">
      <path d="M830.0236 452.76 Q830.0236 442.76 840.0236 442.76 L878.2193 442.76 Q888.2193 442.76 888.2193 452.76 L888.2193 472.76 Q888.2193 482.76 878.2193 482.76 L840.0236 482.76 Q830.0236 482.76 830.0236 472.76 Z" stroke="none" clip-path="url(#clipPath2)"/>
    </g>
    <g text-rendering="geometricPrecision" stroke-miterlimit="1.45" shape-rendering="geometricPrecision" transform="matrix(1,0,0,1,-305,-113)" stroke-linecap="butt">
      <path fill="none" d="M830.0236 452.76 Q830.0236 442.76 840.0236 442.76 L878.2193 442.76 Q888.2193 442.76 888.2193 452.76 L888.2193 472.76 Q888.2193 482.76 878.2193 482.76 L840.0236 482.76 Q830.0236 482.76 830.0236 472.76 Z" clip-path="url(#clipPath2)"/>
      <text x="837.0236" xml:space="preserve" y="459.2459" clip-path="url(#clipPath2)" font-family="sans-serif" stroke="none">android</text>
      <text x="837.5093" xml:space="preserve" y="475.581" clip-path="url(#clipPath2)" font-family="sans-serif" stroke="none">.Service</text>
    </g>
    <g fill="white" text-rendering="geometricPrecision" shape-rendering="geometricPrecision" transform="matrix(1,0,0,1,-305,-113)" stroke="white">
      <path d="M982.8721 452.76 Q982.8721 442.76 992.8721 442.76 L1067.5277 442.76 Q1077.5277 442.76 1077.5277 452.76 L1077.5277 472.76 Q1077.5277 482.76 1067.5277 482.76 L992.8721 482.76 Q982.8721 482.76 982.8721 472.76 Z" stroke="none" clip-path="url(#clipPath2)"/>
    </g>
    <g text-rendering="geometricPrecision" stroke-miterlimit="1.45" shape-rendering="geometricPrecision" transform="matrix(1,0,0,1,-305,-113)" stroke-linecap="butt">
      <path fill="none" d="M982.8721 452.76 Q982.8721 442.76 992.8721 442.76 L1067.5277 442.76 Q1077.5277 442.76 1077.5277 452.76 L1077.5277 472.76 Q1077.5277 482.76 1067.5277 482.76 L992.8721 482.76 Q982.8721 482.76 982.8721 472.76 Z" clip-path="url(#clipPath2)"/>
      <text x="1008.1021" xml:space="preserve" y="459.2459" clip-path="url(#clipPath2)" font-family="sans-serif" stroke="none">android</text>
      <text x="989.8721" xml:space="preserve" y="475.581" clip-path="url(#clipPath2)" font-family="sans-serif" stroke="none">.MediaSession</text>
    </g>
    <g fill="white" text-rendering="geometricPrecision" shape-rendering="geometricPrecision" transform="matrix(1,0,0,1,-305,-113)" stroke="white">
      <path d="M771.885 449.76 Q771.885 442.76 778.885 442.76 L778.885 442.76 Q785.885 442.76 785.885 449.76 L785.885 475.76 Q785.885 482.76 778.885 482.76 L778.885 482.76 Q771.885 482.76 771.885 475.76 Z" stroke="none" clip-path="url(#clipPath2)"/>
    </g>
    <g text-rendering="geometricPrecision" stroke-miterlimit="1.45" shape-rendering="geometricPrecision" transform="matrix(1,0,0,1,-305,-113)" stroke-linecap="butt">
      <path fill="none" d="M771.885 449.76 Q771.885 442.76 778.885 442.76 L778.885 442.76 Q785.885 442.76 785.885 449.76 L785.885 475.76 Q785.885 482.76 778.885 482.76 L778.885 482.76 Q771.885 482.76 771.885 475.76 Z" clip-path="url(#clipPath2)"/>
    </g>
    <g fill="white" text-rendering="geometricPrecision" shape-rendering="geometricPrecision" transform="matrix(1,0,0,1,-305,-113)" stroke="white">
      <path d="M374.7759 452.76 Q374.7759 442.76 384.7759 442.76 L473.5239 442.76 Q483.5239 442.76 483.5239 452.76 L483.5239 472.76 Q483.5239 482.76 473.5239 482.76 L384.7759 482.76 Q374.7759 482.76 374.7759 472.76 Z" stroke="none" clip-path="url(#clipPath2)"/>
    </g>
    <g text-rendering="geometricPrecision" stroke-miterlimit="1.45" shape-rendering="geometricPrecision" transform="matrix(1,0,0,1,-305,-113)" stroke-linecap="butt">
      <path fill="none" d="M374.7759 452.76 Q374.7759 442.76 384.7759 442.76 L473.5239 442.76 Q483.5239 442.76 483.5239 452.76 L483.5239 472.76 Q483.5239 482.76 473.5239 482.76 L384.7759 482.76 Q374.7759 482.76 374.7759 472.76 Z" clip-path="url(#clipPath2)"/>
      <text x="407.052" xml:space="preserve" y="459.2459" clip-path="url(#clipPath2)" font-family="sans-serif" stroke="none">android</text>
      <text x="381.7759" xml:space="preserve" y="475.581" clip-path="url(#clipPath2)" font-family="sans-serif" stroke="none">.MediaController</text>
    </g>
    <g fill="white" text-rendering="geometricPrecision" shape-rendering="geometricPrecision" transform="matrix(1,0,0,1,-305,-113)" stroke="white">
      <path d="M557.7195 452.76 Q557.7195 442.76 567.7195 442.76 L646.6689 442.76 Q656.6689 442.76 656.6689 452.76 L656.6689 472.76 Q656.6689 482.76 646.6689 482.76 L567.7195 482.76 Q557.7195 482.76 557.7195 472.76 Z" stroke="none" clip-path="url(#clipPath2)"/>
    </g>
    <g text-rendering="geometricPrecision" stroke-miterlimit="1.45" shape-rendering="geometricPrecision" transform="matrix(1,0,0,1,-305,-113)" stroke-linecap="butt">
      <path fill="none" d="M557.7195 452.76 Q557.7195 442.76 567.7195 442.76 L646.6689 442.76 Q656.6689 442.76 656.6689 452.76 L656.6689 472.76 Q656.6689 482.76 646.6689 482.76 L567.7195 482.76 Q557.7195 482.76 557.7195 472.76 Z" clip-path="url(#clipPath2)"/>
      <text x="585.0964" xml:space="preserve" y="459.2459" clip-path="url(#clipPath2)" font-family="sans-serif" stroke="none">android</text>
      <text x="564.7195" xml:space="preserve" y="475.581" clip-path="url(#clipPath2)" font-family="sans-serif" stroke="none">.MediaBrowser</text>
    </g>
    <g fill="white" text-rendering="geometricPrecision" shape-rendering="geometricPrecision" transform="matrix(1,0,0,1,-305,-113)" stroke="white">
      <path d="M584.1411 399.16 Q584.1411 391.32 591.981 391.32 L622.4074 391.32 Q630.2474 391.32 630.2474 399.16 L630.2474 399.16 Q630.2474 407 622.4074 407 L591.981 407 Q584.1411 407 584.1411 399.16 Z" stroke="none" clip-path="url(#clipPath2)"/>
    </g>
    <g text-rendering="geometricPrecision" stroke-miterlimit="1.45" shape-rendering="geometricPrecision" transform="matrix(1,0,0,1,-305,-113)" stroke-linecap="butt">
      <path fill="none" d="M584.1411 399.16 Q584.1411 391.32 591.981 391.32 L622.4074 391.32 Q630.2474 391.32 630.2474 399.16 L630.2474 399.16 Q630.2474 407 622.4074 407 L591.981 407 Q584.1411 407 584.1411 399.16 Z" clip-path="url(#clipPath2)"/>
    </g>
    <g fill="white" text-rendering="geometricPrecision" shape-rendering="geometricPrecision" transform="matrix(1,0,0,1,-305,-113)" stroke="white">
      <path d="M694.6904 516.36 Q694.6904 506.36 704.6904 506.36 L901.0792 506.36 Q911.0792 506.36 911.0792 516.36 L911.0792 536.36 Q911.0792 546.36 901.0792 546.36 L704.6904 546.36 Q694.6904 546.36 694.6904 536.36 Z" stroke="none" clip-path="url(#clipPath2)"/>
    </g>
    <g text-rendering="geometricPrecision" stroke-miterlimit="1.45" shape-rendering="geometricPrecision" transform="matrix(1,0,0,1,-305,-113)" stroke-linecap="butt">
      <path fill="none" d="M694.6904 516.36 Q694.6904 506.36 704.6904 506.36 L901.0792 506.36 Q911.0792 506.36 911.0792 516.36 L911.0792 536.36 Q911.0792 546.36 901.0792 546.36 L704.6904 546.36 Q694.6904 546.36 694.6904 536.36 Z" clip-path="url(#clipPath2)"/>
      <text x="761.0638" xml:space="preserve" y="522.8459" clip-path="url(#clipPath2)" font-family="sans-serif" stroke="none">AudioManager</text>
      <text x="701.6904" xml:space="preserve" y="539.181" clip-path="url(#clipPath2)" font-family="sans-serif" stroke="none">.ACTION_AUDIO_BECOMING_NOISY</text>
    </g>
    <g fill="white" text-rendering="geometricPrecision" shape-rendering="geometricPrecision" transform="matrix(1,0,0,1,-305,-113)" stroke="white">
      <path d="M487.66 516.36 Q487.66 506.36 497.66 506.36 L665.4684 506.36 Q675.4684 506.36 675.4684 516.36 L675.4684 536.36 Q675.4684 546.36 665.4684 546.36 L497.66 546.36 Q487.66 546.36 487.66 536.36 Z" stroke="none" clip-path="url(#clipPath2)"/>
    </g>
    <g text-rendering="geometricPrecision" stroke-miterlimit="1.45" shape-rendering="geometricPrecision" transform="matrix(1,0,0,1,-305,-113)" stroke-linecap="butt">
      <path fill="none" d="M487.66 516.36 Q487.66 506.36 497.66 506.36 L665.4684 506.36 Q675.4684 506.36 675.4684 516.36 L675.4684 536.36 Q675.4684 546.36 665.4684 546.36 L497.66 546.36 Q487.66 546.36 487.66 536.36 Z" clip-path="url(#clipPath2)"/>
      <text x="539.7432" xml:space="preserve" y="522.8459" clip-path="url(#clipPath2)" font-family="sans-serif" stroke="none">AudioManager</text>
      <text x="494.66" xml:space="preserve" y="539.181" clip-path="url(#clipPath2)" font-family="sans-serif" stroke="none">.OnAudioFocusChangeListener</text>
    </g>
    <g fill="white" text-rendering="geometricPrecision" shape-rendering="geometricPrecision" transform="matrix(1,0,0,1,-305,-113)" stroke="white">
      <path d="M320.2799 231.88 Q320.2799 221.88 330.2799 221.88 L371.6898 221.88 Q381.6898 221.88 381.6898 231.88 L381.6898 251.88 Q381.6898 261.88 371.6898 261.88 L330.2799 261.88 Q320.2799 261.88 320.2799 251.88 Z" stroke="none" clip-path="url(#clipPath2)"/>
    </g>
    <g text-rendering="geometricPrecision" stroke-miterlimit="1.45" shape-rendering="geometricPrecision" transform="matrix(1,0,0,1,-305,-113)" stroke-linecap="butt">
      <path fill="none" d="M320.2799 231.88 Q320.2799 221.88 330.2799 221.88 L371.6898 221.88 Q381.6898 221.88 381.6898 231.88 L381.6898 251.88 Q381.6898 261.88 371.6898 261.88 L330.2799 261.88 Q320.2799 261.88 320.2799 251.88 Z" clip-path="url(#clipPath2)"/>
      <text x="327.2799" xml:space="preserve" y="246.5334" clip-path="url(#clipPath2)" font-family="sans-serif" stroke="none">Explorer</text>
    </g>
    <g stroke-linecap="butt" transform="matrix(1,0,0,1,-305,-113)" fill="gray" text-rendering="geometricPrecision" shape-rendering="geometricPrecision" stroke="gray" stroke-miterlimit="1.45">
      <path fill="none" d="M413.2952 152.5 L492.3378 152.5" clip-path="url(#clipPath2)"/>
    </g>
    <g stroke-linecap="butt" transform="matrix(1,0,0,1,-305,-113)" fill="gray" text-rendering="geometricPrecision" shape-rendering="geometricPrecision" stroke="gray" stroke-miterlimit="1.45">
      <path d="M500.3378 152.5 L488.3378 147.5 L491.3378 152.5 L488.3378 157.5 Z" stroke="none" clip-path="url(#clipPath2)"/>
      <text x="420.2952" y="143.0734" clip-path="url(#clipPath2)" fill="black" font-family="sans-serif" stroke="none" xml:space="preserve">play()</text>
      <path fill="none" d="M552.0996 161 L608.7532 161" clip-path="url(#clipPath2)" stroke="rgb(0,170,0)"/>
      <path fill="rgb(0,170,0)" d="M616.7532 161 L604.7532 156 L607.7532 161 L604.7532 166 Z" clip-path="url(#clipPath2)" stroke="none"/>
      <text x="559.0996" y="153.8059" clip-path="url(#clipPath2)" fill="black" font-family="sans-serif" stroke="none" xml:space="preserve">start()</text>
      <path fill="none" d="M372 140.9727 L372 134 L375 131 L639.0405 131 L639.0405 132.9609" clip-path="url(#clipPath2)" stroke="rgb(0,170,0)"/>
      <path fill="rgb(0,170,0)" d="M639.0405 140.9609 L644.0405 128.9609 L639.0405 131.9609 L634.0405 128.9609 Z" clip-path="url(#clipPath2)" stroke="none"/>
      <path fill="none" d="M629.4127 181 L629.4127 280.2138" clip-path="url(#clipPath2)" stroke="rgb(51,102,255)"/>
      <path fill="rgb(51,102,255)" d="M629.4127 288.2138 L634.4127 276.2138 L629.4127 279.2138 L624.4127 276.2138 Z" clip-path="url(#clipPath2)" stroke="none"/>
      <text x="585.1705" y="197.3384" clip-path="url(#clipPath2)" fill="black" font-family="sans-serif" stroke="none" xml:space="preserve">open()</text>
      <text x="577.7766" y="213.6734" clip-path="url(#clipPath2)" fill="black" font-family="sans-serif" stroke="none" xml:space="preserve">process()</text>
      <text x="585.2665" y="230.0085" clip-path="url(#clipPath2)" fill="black" font-family="sans-serif" stroke="none" xml:space="preserve">close()</text>
      <path fill="none" d="M615.9491 299.74 L537.74 299.74 L514.8102 276.8102 L514.8102 189" clip-path="url(#clipPath2)" stroke="rgb(51,102,255)"/>
      <path fill="rgb(51,102,255)" d="M514.8102 181 L509.8102 193 L514.8102 190 L519.8102 193 Z" clip-path="url(#clipPath2)" stroke="none"/>
      <path fill="none" d="M615.9594 316.74 L501.74 316.74 L479.6439 294.6439 L479.6439 188.6439 L460.5 169.5 L421.2952 169.5" clip-path="url(#clipPath2)" stroke="rgb(51,102,255)"/>
      <path fill="rgb(51,102,255)" d="M413.2952 169.5 L425.2952 174.5 L422.2952 169.5 L425.2952 164.5 Z" clip-path="url(#clipPath2)" stroke="none"/>
      <path fill="none" d="M645.8171 334.2166 L645.8171 338.24 L805.4078 338.24 L805.4078 336.0212" clip-path="url(#clipPath2)" stroke="rgb(51,102,255)"/>
      <path fill="rgb(51,102,255)" d="M805.4078 328.0212 L800.4078 340.0212 L805.4078 337.0212 L810.4078 340.0212 Z" clip-path="url(#clipPath2)" stroke="none"/>
      <path fill="none" d="M820.3702 288.2144 L820.3702 183.3702 L798 161 L669.2961 161" clip-path="url(#clipPath2)" stroke="rgb(0,170,0)"/>
      <path fill="rgb(0,170,0)" d="M661.2961 161 L673.2961 166 L670.2961 161 L673.2961 156 Z" clip-path="url(#clipPath2)" stroke="none"/>
      <path fill="none" d="M807.6544 288.24 L807.6544 250.6543 L791.62 234.62 L553.62 234.62 L537.6698 218.6698 L537.6698 189" clip-path="url(#clipPath2)"/>
      <path d="M537.6698 181 L532.6698 193 L537.6698 190 L542.6698 193 Z" clip-path="url(#clipPath2)" stroke="none"/>
      <path fill="none" d="M667.4561 299.74 L690.9158 299.74" clip-path="url(#clipPath2)" stroke="rgb(51,102,255)"/>
      <path fill="rgb(51,102,255)" d="M698.9158 299.74 L686.9158 294.74 L689.9158 299.74 L686.9158 304.74 Z" clip-path="url(#clipPath2)" stroke="none"/>
      <path fill="none" d="M726.9951 288.193 L726.9951 191.995 L707.3333 172.3333 L669.2961 172.3333" clip-path="url(#clipPath2)" stroke="rgb(0,170,0)"/>
      <path fill="rgb(0,170,0)" d="M661.2961 172.3333 L673.2961 177.3333 L670.2961 172.3333 L673.2961 167.3333 Z" clip-path="url(#clipPath2)" stroke="none"/>
      <path fill="none" d="M648.6683 288.205 L648.6683 270.3317 L655.3 263.7 L893.3 263.7 L915.7571 241.2429 L915.7571 188.2429 L926.12 177.88 L944.3738 177.88" clip-path="url(#clipPath2)" stroke="rgb(51,102,255)"/>
      <path fill="rgb(51,102,255)" d="M952.3738 177.88 L940.3738 172.88 L943.3738 177.88 L940.3738 182.88 Z" clip-path="url(#clipPath2)" stroke="none"/>
      <text x="908.9169" y="171.0601" clip-path="url(#clipPath2)" fill="black" font-family="sans-serif" stroke="none" xml:space="preserve">open()</text>
      <path fill="none" d="M1016.2902 160.94 L1153.9399 160.94 L1176.2543 183.2543 L1176.2543 434.7283" clip-path="url(#clipPath2)"/>
      <path d="M1176.2543 442.7283 L1181.2543 430.7283 L1176.2543 433.7283 L1171.2543 430.7283 Z" clip-path="url(#clipPath2)" stroke="none"/>
      <text x="1023.2902" y="150.8734" clip-path="url(#clipPath2)" fill="black" font-family="sans-serif" stroke="none" xml:space="preserve">start()</text>
      <path fill="none" d="M950.3964 155.2933 L888.1772 155.2933" clip-path="url(#clipPath2)"/>
      <path d="M880.1772 155.2933 L892.1772 160.2933 L889.1772 155.2933 L892.1772 150.2933 Z" clip-path="url(#clipPath2)" stroke="none"/>
      <path fill="none" d="M840.5906 149.6667 L669.2961 149.6667" clip-path="url(#clipPath2)" stroke="rgb(0,170,0)"/>
      <path fill="rgb(0,170,0)" d="M661.2961 149.6667 L673.2961 154.6667 L670.2961 149.6667 L673.2961 144.6667 Z" clip-path="url(#clipPath2)" stroke="none"/>
      <text x="782.5461" y="143.4401" clip-path="url(#clipPath2)" fill="black" font-family="sans-serif" stroke="none" xml:space="preserve">update()</text>
      <path fill="none" d="M1135.7704 442.7341 L1135.7704 230.7704 L1112.9399 207.94 L1024.2902 207.94" clip-path="url(#clipPath2)"/>
      <path d="M1016.2902 207.94 L1028.2902 212.94 L1025.2902 207.94 L1028.2902 202.94 Z" clip-path="url(#clipPath2)" stroke="none"/>
      <text x="1020.0646" y="198.2865" clip-path="url(#clipPath2)" fill="black" font-family="sans-serif" stroke="none" xml:space="preserve">on_complete()</text>
      <path fill="none" d="M950.3947 205.54 L655.54 205.54 L648.6683 198.6683 L648.6683 189" clip-path="url(#clipPath2)" stroke="rgb(0,170,0)"/>
      <path fill="rgb(0,170,0)" d="M648.6683 181 L643.6683 193 L648.6683 190 L653.6683 193 Z" clip-path="url(#clipPath2)" stroke="none"/>
      <text x="907.8561" y="201.9534" clip-path="url(#clipPath2)" fill="black" font-family="sans-serif" stroke="none" xml:space="preserve">close()</text>
      <path fill="none" d="M406.3438 180.746 L406.3438 284.1341" clip-path="url(#clipPath2)"/>
      <path d="M406.3438 292.1341 L411.3438 280.1341 L406.3438 283.1341 L401.3438 280.1341 Z" clip-path="url(#clipPath2)" stroke="none"/>
      <path fill="none" d="M817.0764 328.24 L817.0764 373.1913" clip-path="url(#clipPath2)"/>
      <path d="M817.0764 381.1913 L822.0764 369.1913 L817.0764 372.1913 L812.0764 369.1913 Z" clip-path="url(#clipPath2)" stroke="none"/>
      <path fill="none" d="M830.7303 319.5733 L854.5733 319.5733 L864.4484 329.4484 L864.4484 408.4484 L886.96 430.96 L943.8721 430.96 L943.8721 434.76" clip-path="url(#clipPath2)"/>
      <path d="M943.8721 442.76 L948.8721 430.76 L943.8721 433.76 L938.8721 430.76 Z" clip-path="url(#clipPath2)" stroke="none"/>
      <path fill="none" d="M830.7303 308.24 L925.24 308.24 L945.8721 328.872 L945.8721 371.1109" clip-path="url(#clipPath2)"/>
      <path d="M945.8721 379.1109 L950.8721 367.1109 L945.8721 370.1109 L940.8721 367.1109 Z" clip-path="url(#clipPath2)" stroke="none"/>
      <path fill="none" d="M947.8721 419.16 L947.8721 434.76" clip-path="url(#clipPath2)"/>
      <path d="M947.8721 442.76 L952.8721 430.76 L947.8721 433.76 L942.8721 430.76 Z" clip-path="url(#clipPath2)" stroke="none"/>
      <path fill="none" d="M952.8721 462.76 L974.8428 462.76" clip-path="url(#clipPath2)"/>
      <path d="M982.8428 462.76 L970.8428 457.76 L973.8428 462.76 L970.8428 467.76 Z" clip-path="url(#clipPath2)" stroke="none"/>
      <path fill="none" d="M1039.0527 442.7298 L1039.0527 319.0527 L1016.9067 296.9067 L838.7303 296.9067" clip-path="url(#clipPath2)"/>
      <path d="M830.7303 296.9067 L842.7303 301.9067 L839.7303 296.9067 L842.7303 291.9067 Z" clip-path="url(#clipPath2)" stroke="none"/>
      <path fill="none" d="M776.885 419.16 L776.885 434.76" clip-path="url(#clipPath2)"/>
      <path d="M776.885 442.76 L781.885 430.76 L776.885 433.76 L771.885 430.76 Z" clip-path="url(#clipPath2)" stroke="none"/>
      <path fill="none" d="M830.0764 322.7087 L830.0764 419.9236 L819.04 430.96 L780.885 430.96 L780.885 434.76" clip-path="url(#clipPath2)"/>
      <path d="M780.885 442.76 L785.885 430.76 L780.885 433.76 L775.885 430.76 Z" clip-path="url(#clipPath2)" stroke="none"/>
      <path fill="none" d="M785.885 462.76 L821.9805 462.76" clip-path="url(#clipPath2)"/>
      <path d="M829.9805 462.76 L817.9805 457.76 L820.9805 462.76 L817.9805 467.76 Z" clip-path="url(#clipPath2)" stroke="none"/>
      <path fill="none" d="M415.7711 331.88 L415.7711 434.7329" clip-path="url(#clipPath2)"/>
      <path d="M415.7711 442.7329 L420.7711 430.7329 L415.7711 433.7329 L410.7711 430.7329 Z" clip-path="url(#clipPath2)" stroke="none"/>
      <text x="380.5479" y="351.701" clip-path="url(#clipPath2)" fill="black" font-family="sans-serif" stroke="none" xml:space="preserve">next()</text>
      <text x="380.1342" y="368.036" clip-path="url(#clipPath2)" fill="black" font-family="sans-serif" stroke="none" xml:space="preserve">seek()</text>
      <text x="391.7498" y="384.371" clip-path="url(#clipPath2)" fill="black" font-family="sans-serif" stroke="none" xml:space="preserve">...</text>
      <path fill="none" d="M427.718 482.76 L427.718 534.718 L449.36 556.36 L1008.64 556.36 L1030.1998 534.8001 L1030.1998 490.76" clip-path="url(#clipPath2)"/>
      <path d="M1030.1998 482.76 L1025.1998 494.76 L1030.1998 491.76 L1035.1998 494.76 Z" clip-path="url(#clipPath2)" stroke="none"/>
      <path fill="none" d="M557.6833 462.76 L491.5239 462.76" clip-path="url(#clipPath2)"/>
      <path d="M483.5239 462.76 L495.5239 467.76 L492.5239 462.76 L495.5239 457.76 Z" clip-path="url(#clipPath2)" stroke="none"/>
      <path fill="none" d="M442.5287 331.88 L442.5287 379.5287 L462.16 399.16 L576.1411 399.16" clip-path="url(#clipPath2)"/>
      <path d="M584.1411 399.16 L572.1411 394.16 L575.1411 399.16 L572.1411 404.16 Z" clip-path="url(#clipPath2)" stroke="none"/>
      <path fill="none" d="M813.6307 328.24 L813.6307 338.3693 L810.12 341.88 L633.12 341.88 L619.2639 355.7361 L619.2639 383.2852" clip-path="url(#clipPath2)"/>
      <path d="M619.2639 391.2852 L624.2639 379.2852 L619.2639 382.2852 L614.2639 379.2852 Z" clip-path="url(#clipPath2)" stroke="none"/>
      <path fill="none" d="M607.1942 407 L607.1942 434.7251" clip-path="url(#clipPath2)"/>
      <path d="M607.1942 442.7251 L612.1942 430.7251 L607.1942 433.7251 L602.1942 430.7251 Z" clip-path="url(#clipPath2)" stroke="none"/>
      <path fill="none" d="M714.6085 328.24 L714.6085 498.3165" clip-path="url(#clipPath2)"/>
      <path d="M714.6085 506.3165 L719.6085 494.3165 L714.6085 497.3165 L709.6085 494.3165 Z" clip-path="url(#clipPath2)" stroke="none"/>
      <path fill="none" d="M698.9101 316.74 L680.26 316.74 L672.2811 324.719 L672.2811 500.2214" clip-path="url(#clipPath2)"/>
      <path d="M672.2811 508.2214 L677.2811 496.2214 L672.2811 499.2214 L667.2811 496.2214 Z" clip-path="url(#clipPath2)" stroke="none"/>
      <path fill="none" d="M356.1973 181 L356.1973 213.8401" clip-path="url(#clipPath2)"/>
      <path d="M356.1973 221.8401 L361.1973 209.8401 L356.1973 212.8401 L351.1973 209.8401 Z" clip-path="url(#clipPath2)" stroke="none"/>
    </g>
  </g>
</svg>
